PathFileType	4	(X/Y/Z)	/Users/itak/Documents/Research/Walk-IL/dataset/trc/00054_00006.trc
DataRate	CameraRate	NumFrames	NumMarkers	Units	OrigDataRate	OrigDataStartFrame	OrigNumFrames
100.000000	100.000000	4	53	mm	100.000000	413	472
Frame#	Time	RPSI			LPSI			L3			STRN			T10			C7			CLAV			RBAK			LBAK			LSHO			LUPA			LAEL			LAOL			LWTS			LWPS			LFRA			LHPS			LHTS			RSHO			RUPA			RAEL			RAOL			RWTS			RWPS			RFRA			RIFD			RHTS			RHPS			RBHD			LFHD			RFHD			LBHD			LHIP			RHIP			RASI			LASI			LKNE			LTHI			LANK			LTIP			LTOE			LMT1			LMT5			LHEE			RKNE			RTHI			RANK			RTIP			RTOE			RMT1			RMT5			RHEE			LIFD			
		X1	Y1	Z1	X2	Y2	Z2	X3	Y3	Z3	X4	Y4	Z4	X5	Y5	Z5	X6	Y6	Z6	X7	Y7	Z7	X8	Y8	Z8	X9	Y9	Z9	X10	Y10	Z10	X11	Y11	Z11	X12	Y12	Z12	X13	Y13	Z13	X14	Y14	Z14	X15	Y15	Z15	X16	Y16	Z16	X17	Y17	Z17	X18	Y18	Z18	X19	Y19	Z19	X20	Y20	Z20	X21	Y21	Z21	X22	Y22	Z22	X23	Y23	Z23	X24	Y24	Z24	X25	Y25	Z25	X26	Y26	Z26	X27	Y27	Z27	X28	Y28	Z28	X29	Y29	Z29	X30	Y30	Z30	X31	Y31	Z31	X32	Y32	Z32	X33	Y33	Z33	X34	Y34	Z34	X35	Y35	Z35	X36	Y36	Z36	X37	Y37	Z37	X38	Y38	Z38	X39	Y39	Z39	X40	Y40	Z40	X41	Y41	Z41	X42	Y42	Z42	X43	Y43	Z43	X44	Y44	Z44	X45	Y45	Z45	X46	Y46	Z46	X47	Y47	Z47	X48	Y48	Z48	X49	Y49	Z49	X50	Y50	Z50	X51	Y51	Z51	X52	Y52	Z52	X53	Y53	Z53	

414	4.13	-1008.861633300781	1038.9091796875	-75.93487548828125	-1034.400512695312	1031.788818359375	-249.0092315673828	-1015.858520507812	1092.726440429688	-169.9580841064453	-753.688720703125	1281.9462890625	-189.6692657470703	-1025.269897460938	1228.7626953125	-176.4187469482422	-956.5140991210938	1492.537109375	-186.8186187744141	-779.3345947265625	1397.962280273438	-191.8638916015625	-1018.418762207031	1356.845581054688	-106.9721527099609	-983.3858642578125	1454.3251953125	-286.2845764160156	-882.9298706054688	1453.91357421875	-363.5226135253906	-909.1843872070312	1326.063354492188	-437.3636474609375	-902.078857421875	1109.442016601562	-451.1419982910156	-959.97412109375	1100.860473632812	-361.9675903320312	-823.965087890625	865.3424072265625	-386.7557067871094	-884.5635986328125	857.9829711914062	-444.4034729003906	-888.0450439453125	999.3128051757812	-457.07958984375	-857.274658203125	774.201416015625	-439.2202758789062	-803.1107788085938	784.368408203125	-388.8721313476562	-886.1513671875	1456.96875	-13.15613555908203	-898.2765502929688	1388.79296875	50.83987426757812	-946.3118896484375	1130.006469726562	84.60417938232422	-928.4457397460938	1102.422973632812	-9.925811767578125	-829.8709106445312	864.4427490234375	62.66435241699219	-903.2647705078125	861.9412231445312	113.9648590087891	-941.0824584960938	1050.556762695312	96.33789825439453	-862.0882568359375	673.8687744140625	55.08963394165039	-830.0698852539062	755.7354125976562	67.14479064941406	-885.2853393554688	767.3364868164062	118.8118515014648	-922.0517578125	1669.53759765625	-257.5959167480469	-766.709228515625	1702.191772460938	-111.1387939453125	-749.999267578125	1713.266723632812	-235.5337371826172	-930.2162475585938	1650.966796875	-120.9795074462891	-942.0176391601562	966.3930053710938	-350.0432434082031	-936.2921142578125	963.8265991210938	-5.235360145568848	-815.4806518554688	976.4768676757812	-40.12248611450195	-825.0880126953125	971.2227783203125	-307.4265747070312	-871.7531127929688	499.8734436035156	-319.8519897460938	-904.5101318359375	641.8942260742188	-349.6980590820312	-1015.409484863281	51.22970962524414	-345.1162719726562	-952.803955078125	264.44091796875	-345.3500671386719	-810.8607177734375	44.84601211547852	-346.4799499511719	-857.016845703125	45.08657073974609	-290.1033020019531	-913.7138061523438	40.06074142456055	-387.5206909179688	-1064.442504882812	48.25160598754883	-267.0102233886719	-874.03125	515.751953125	-52.0573844909668	-858.5555419921875	785.2850952148438	-12.09317016601562	-986.415771484375	44.91873168945312	-74.378173828125	-900.0430908203125	392.2880859375	-51.15304565429688	-771.5313110351562	44.21180725097656	-113.0686798095703	-832.423828125	45.90450286865234	-153.1250915527344	-860.0490112304688	54.20683670043945	-60.26688003540039	-1035.397583007812	45.62305450439453	-131.4317321777344	-831.7049560546875	678.2945556640625	-362.0072326660156	
415	4.14	-1009.530822753906	1038.940185546875	-76.64262390136719	-1035.338134765625	1031.950561523438	-249.6765594482422	-1016.722717285156	1092.633911132812	-170.5814971923828	-755.2151489257812	1282.443481445312	-190.6087188720703	-1026.701538085938	1228.626831054688	-176.99169921875	-958.4322509765625	1492.567260742188	-187.5237731933594	-781.089111328125	1398.397705078125	-192.7205200195312	-1019.993347167969	1356.711181640625	-107.6803970336914	-985.3202514648438	1454.383911132812	-286.9717407226562	-884.9080200195312	1454.277587890625	-364.2713623046875	-911.0787963867188	1326.557006835938	-438.3377685546875	-903.7299194335938	1109.97705078125	-452.5170593261719	-961.66552734375	1101.197509765625	-363.3731994628906	-825.1983642578125	865.97705078125	-388.4611511230469	-885.826171875	858.5269165039062	-446.0738525390625	-889.57275390625	999.884765625	-458.6229248046875	-858.3880615234375	774.7924194335938	-440.9604187011719	-804.2857666015625	784.9542846679688	-390.6094360351562	-887.9764404296875	1457.198974609375	-13.92730236053467	-899.9526977539062	1388.950805664062	50.07101821899414	-947.3641967773438	1129.965209960938	83.19944763183594	-929.3455810546875	1102.634033203125	-11.3586893081665	-830.2782592773438	864.6862182617188	60.85435104370117	-903.7261962890625	861.94873046875	112.0017395019531	-941.9866333007812	1050.480834960938	94.76322937011719	-862.0972290039062	674.0580444335938	52.81379318237305	-830.2476196289062	756.0089721679688	65.09393310546875	-885.540283203125	767.4033203125	116.6884002685547	-924.0716552734375	1669.67919921875	-258.5326232910156	-768.880615234375	1702.565185546875	-111.9634704589844	-752.0617065429688	1713.5361328125	-236.3545532226562	-932.3502807617188	1651.234741210938	-121.9038314819336	-943.0087890625	966.5792236328125	-350.8130493164062	-936.7453002929688	963.9375	-6.07103967666626	-815.931396484375	976.7952880859375	-41.2681999206543	-826.0477294921875	971.5508422851562	-308.5508117675781	-872.5924072265625	500.0086669921875	-320.5035705566406	-905.3071899414062	642.0174560546875	-350.1520080566406	-1015.389099121094	51.27991485595703	-345.1086120605469	-953.296142578125	264.5736694335938	-345.5807800292969	-810.7977294921875	44.84568786621094	-346.4407348632812	-857.0213623046875	45.0655403137207	-290.0949096679688	-913.686767578125	40.0837516784668	-387.4857482910156	-1064.418579101562	48.28223037719727	-267.0157775878906	-874.5203857421875	515.9005737304688	-52.72374725341797	-859.0381469726562	785.4638061523438	-12.97518253326416	-986.377685546875	44.99503326416016	-74.46849822998047	-900.5435180664062	392.5166320800781	-51.62668228149414	-771.4617919921875	44.17524719238281	-112.9382247924805	-832.3673095703125	45.88683319091797	-153.1367034912109	-859.9644775390625	54.18902206420898	-60.28023529052734	-1035.363525390625	45.66295623779297	-131.5340728759766	-833.0008544921875	678.922607421875	-364.0054931640625	
416	4.15	-1010.1962890625	1038.954833984375	-77.39669799804688	-1036.22021484375	1032.04052734375	-250.4018707275391	-1017.5361328125	1092.501586914062	-171.2567749023438	-756.7117919921875	1282.907958984375	-191.5159301757812	-1028.08740234375	1228.454711914062	-177.55615234375	-960.3282470703125	1492.564575195312	-188.1920471191406	-782.8068237304688	1398.80419921875	-193.5468902587891	-1021.524047851562	1356.541259765625	-108.3537826538086	-987.231201171875	1454.402587890625	-287.6142578125	-886.8740844726562	1454.598999023438	-364.9847412109375	-912.968017578125	1327.006103515625	-439.2707214355469	-905.3306274414062	1110.4765625	-453.8917846679688	-963.3067626953125	1101.470458984375	-364.7738342285156	-826.2999267578125	866.5968017578125	-390.2047729492188	-886.9671020507812	859.0411987304688	-447.7694091796875	-891.0350341796875	1000.427978515625	-460.1816101074219	-859.3455810546875	775.3694458007812	-442.7406311035156	-805.3080444335938	785.5438232421875	-392.4016723632812	-889.7557373046875	1457.393798828125	-14.6644344329834	-901.579345703125	1389.084594726562	49.33754730224609	-948.3635864257812	1129.904663085938	81.90760040283203	-930.2086181640625	1102.818115234375	-12.68246746063232	-830.5098876953125	864.9541625976562	59.08800506591797	-904.0073852539062	861.9179077148438	110.0765686035156	-942.8098754882812	1050.365966796875	93.29898071289062	-861.7981567382812	674.2850952148438	50.47803115844727	-830.1710815429688	756.3171997070312	63.04427337646484	-885.5599365234375	767.4352416992188	114.5521240234375	-926.0519409179688	1669.806518554688	-259.4382019042969	-770.9786987304688	1702.90771484375	-112.7886962890625	-754.0678100585938	1713.753051757812	-237.1807403564453	-934.423583984375	1651.500244140625	-122.7914123535156	-943.915283203125	966.7088623046875	-351.615234375	-937.2177734375	964.0458984375	-6.926072120666504	-816.3294677734375	977.1323852539062	-42.36138534545898	-826.9297485351562	971.8209228515625	-309.6311340332031	-873.3333129882812	500.0891418457031	-321.1463623046875	-905.9860229492188	642.080810546875	-350.6372375488281	-1015.377258300781	51.30214309692383	-345.1029968261719	-953.7677612304688	264.6648254394531	-345.8176574707031	-810.7472534179688	44.84891128540039	-346.4088439941406	-857.0289916992188	45.05356979370117	-290.0941467285156	-913.676025390625	40.10165405273438	-387.4645385742188	-1064.399780273438	48.28935623168945	-267.017333984375	-875.0468139648438	516.0443115234375	-53.31315231323242	-859.532958984375	785.6571044921875	-13.81077766418457	-986.3413696289062	45.05643844604492	-74.54148101806641	-901.0889892578125	392.7408142089844	-52.04053115844727	-771.3988647460938	44.13911819458008	-112.8299942016602	-832.3214721679688	45.87808227539062	-153.1336059570312	-859.896728515625	54.17042541503906	-60.27715682983398	-1035.338989257812	45.69697570800781	-131.6294250488281	-834.0122680664062	679.5494384765625	-366.042724609375	
417	4.16	-1010.86669921875	1038.938232421875	-78.19071197509766	-1037.051391601562	1032.048095703125	-251.1774139404297	-1018.314880371094	1092.330688476562	-171.9801788330078	-758.177490234375	1283.33056640625	-192.3963317871094	-1029.431518554688	1228.249877929688	-178.1257629394531	-962.1954345703125	1492.528930664062	-188.8262939453125	-784.488037109375	1399.172241210938	-194.3482055664062	-1023.012817382812	1356.337158203125	-108.9965438842773	-989.1140747070312	1454.378662109375	-288.2164611816406	-888.8242797851562	1454.86865234375	-365.6686096191406	-914.8466186523438	1327.396606445312	-440.1626281738281	-906.8800048828125	1110.926147460938	-455.2616577148438	-964.889404296875	1101.666748046875	-366.1622009277344	-827.2767944335938	867.182861328125	-391.9812622070312	-887.9940795898438	859.5109252929688	-449.484130859375	-892.4306030273438	1000.926330566406	-461.7489929199219	-860.1543579101562	775.916748046875	-444.5570068359375	-806.1906127929688	786.1171264648438	-394.2429504394531	-891.4796752929688	1457.538818359375	-15.37057209014893	-903.1464233398438	1389.17724609375	48.63447189331055	-949.3075561523438	1129.80859375	80.73616027832031	-931.0512084960938	1102.956298828125	-13.89352893829346	-830.5736083984375	865.2313232421875	57.35725021362305	-904.1138305664062	861.832763671875	108.1974868774414	-943.5505981445312	1050.19775390625	91.95309448242188	-861.2013549804688	674.533447265625	48.0919303894043	-829.84521484375	756.6431884765625	60.99685287475586	-885.3497314453125	767.4151000976562	112.4124298095703	-927.994873046875	1669.913696289062	-260.3059692382812	-773.0039672851562	1703.213623046875	-113.6103210449219	-756.0223999023438	1713.923583984375	-238.0067138671875	-936.4338989257812	1651.745971679688	-123.6388549804688	-944.7477416992188	966.7805786132812	-352.4446105957031	-937.7103271484375	964.1439208984375	-7.791913509368896	-816.6940307617188	977.4783935546875	-43.39420700073242	-827.7335205078125	972.0350341796875	-310.6593627929688	-873.99462890625	500.1266479492188	-321.770751953125	-906.5818481445312	642.0960693359375	-351.1509094238281	-1015.373718261719	51.2949104309082	-345.1044311523438	-954.2080078125	264.7149963378906	-346.0602416992188	-810.7091064453125	44.85375595092773	-346.384765625	-857.039794921875	45.04952621459961	-290.1003723144531	-913.6787719726562	40.11116027832031	-387.4569091796875	-1064.388671875	48.27383041381836	-267.0206909179688	-875.6000366210938	516.1818237304688	-53.83468627929688	-860.035400390625	785.8611450195312	-14.59989356994629	-986.3065795898438	45.1050910949707	-74.59983825683594	-901.6668701171875	392.9557189941406	-52.40400314331055	-771.3417358398438	44.10405349731445	-112.7413177490234	-832.2849731445312	45.87640762329102	-153.1180572509766	-859.8446044921875	54.15253448486328	-60.26072692871094	-1035.321411132812	45.72541809082031	-131.7189788818359	-834.7035522460938	680.1522827148438	-368.1004943847656	
